{
	"asset":{
		"generator":"Khronos glTF Blender I/O v4.4.56",
		"version":"2.0"
	},
	"scene":0,
	"scenes":[
		{
			"name":"Scene",
			"nodes":[
				0,
				1,
				2,
				3,
				4,
				5,
				7,
				8,
				9,
				10,
				11,
				12,
				13,
				14,
				15,
				16,
				17,
				18,
				19,
				31,
				32,
				39,
				46
			]
		}
	],
	"nodes":[
		{
			"mesh":0,
			"name":"Avtotormoz242",
			"rotation":[
				0,
				-1,
				0,
				7.549790126404332e-08
			]
		},
		{
			"mesh":1,
			"name":"Yashiki_AB",
			"translation":[
				1.3381471633911133,
				0.6121166348457336,
				2.9802322387695312e-05
			]
		},
		{
			"mesh":2,
			"name":"SA-3-1",
			"rotation":[
				0,
				-1,
				0,
				7.549790126404332e-08
			]
		},
		{
			"mesh":3,
			"name":"OtP"
		},
		{
			"mesh":4,
			"name":"SA-3-2"
		},
		{
			"mesh":5,
			"name":"Koncevoy002",
			"scale":[
				0.7311812043190002,
				0.7311812043190002,
				1.0750038623809814
			]
		},
		{
			"mesh":6,
			"name":"GV",
			"rotation":[
				0,
				-0.4882326126098633,
				0,
				0.872713565826416
			],
			"translation":[
				0.6738990545272827,
				5.053824424743652,
				-1.4226704835891724
			]
		},
		{
			"children":[
				6
			],
			"mesh":7,
			"name":"Roof_blok"
		},
		{
			"mesh":8,
			"name":"Koncevie",
			"scale":[
				0.6102956533432007,
				0.6102956533432007,
				0.6102956533432007
			]
		},
		{
			"mesh":9,
			"name":"Koncevoy003",
			"rotation":[
				0,
				-1,
				0,
				7.549790126404332e-08
			],
			"scale":[
				0.7311812043190002,
				0.7311812043190002,
				1.0750038623809814
			]
		},
		{
			"mesh":10,
			"name":"RuchkiDver"
		},
		{
			"mesh":11,
			"name":"LESTN"
		},
		{
			"mesh":12,
			"name":"Ornament",
			"rotation":[
				0,
				-1,
				0,
				7.549790126404332e-08
			]
		},
		{
			"mesh":13,
			"name":"SandTrube"
		},
		{
			"mesh":14,
			"name":"cabNomer",
			"scale":[
				0.08863989263772964,
				0.08863989263772964,
				0.06226109340786934
			]
		},
		{
			"mesh":15,
			"name":"KorpCab"
		},
		{
			"mesh":16,
			"name":"KorpCab2",
			"rotation":[
				0,
				-1,
				0,
				7.549790126404332e-08
			]
		},
		{
			"mesh":17,
			"name":"AntenaUKV",
			"scale":[
				0.03804859146475792,
				0.0897502526640892,
				0.03804859146475792
			],
			"translation":[
				0.012137534096837044,
				4.6821513175964355,
				-0.000186920166015625
			]
		},
		{
			"mesh":18,
			"name":"Poruchni"
		},
		{
			"mesh":19,
			"name":"Cepochka"
		},
		{
			"mesh":20,
			"name":"Wheel-1",
			"rotation":[
				0,
				-1,
				0,
				7.549790126404332e-08
			],
			"translation":[
				0,
				0.6337800025939941,
				-1.4505858421325684
			]
		},
		{
			"mesh":21,
			"name":"Wheel-2",
			"rotation":[
				0,
				-1,
				0,
				7.549790126404332e-08
			],
			"translation":[
				0,
				0.6337800025939941,
				1.4504127502441406
			]
		},
		{
			"children":[
				20,
				21
			],
			"mesh":22,
			"name":"Boige1",
			"translation":[
				0,
				0,
				-6.679413318634033
			]
		},
		{
			"mesh":23,
			"name":"Wheel-3",
			"rotation":[
				0,
				-1,
				0,
				7.549790126404332e-08
			],
			"translation":[
				0,
				0.633780300617218,
				-1.4379997253417969
			]
		},
		{
			"mesh":24,
			"name":"Wheel-4",
			"rotation":[
				0,
				-1,
				0,
				7.549790126404332e-08
			],
			"translation":[
				0,
				0.633780300617218,
				1.4629998207092285
			]
		},
		{
			"children":[
				23,
				24
			],
			"mesh":25,
			"name":"Boige2"
		},
		{
			"mesh":26,
			"name":"Wheel-5",
			"translation":[
				0,
				0.6337805986404419,
				1.4504404067993164
			]
		},
		{
			"mesh":27,
			"name":"Wheel-6",
			"translation":[
				0,
				0.6337805986404419,
				-1.450819492340088
			]
		},
		{
			"children":[
				26,
				27
			],
			"mesh":28,
			"name":"Boige3",
			"rotation":[
				0,
				-1,
				0,
				7.549790126404332e-08
			],
			"translation":[
				0,
				0,
				6.771440029144287
			]
		},
		{
			"mesh":29,
			"name":"Pant_Rama1",
			"translation":[
				-0.0004937383346259594,
				0,
				0
			]
		},
		{
			"mesh":30,
			"name":"Pant_Rama2",
			"rotation":[
				0,
				-1,
				0,
				7.549790126404332e-08
			],
			"translation":[
				-0.0004937383346259594,
				0,
				0
			]
		},
		{
			"children":[
				22,
				25,
				28,
				29,
				30
			],
			"mesh":31,
			"name":"Body"
		},
		{
			"mesh":32,
			"name":"razcep",
			"rotation":[
				0,
				-1,
				0,
				7.549789415861596e-08
			],
			"scale":[
				0.26614782214164734,
				0.26614782214164734,
				0.19859230518341064
			]
		},
		{
			"mesh":33,
			"name":"Pant1_main",
			"rotation":[
				5.2182617338303317e-08,
				-0.7226830720901489,
				-0.6911795735359192,
				5.456104190670885e-08
			],
			"scale":[
				1,
				0.9999982714653015,
				1.000000238418579
			],
			"translation":[
				1.3480894267559052e-07,
				0.18413081765174866,
				0.09072378277778625
			]
		},
		{
			"children":[
				33
			],
			"name":"Bone.002",
			"rotation":[
				-0.05545009672641754,
				-1.1002920676635036e-23,
				1.2312410537103793e-17,
				0.9984614849090576
			],
			"translation":[
				-1.819797347616661e-23,
				1.3987157344818115,
				-1.1920928955078125e-07
			]
		},
		{
			"mesh":34,
			"name":"Pant1_topR",
			"rotation":[
				2.6524784146886304e-08,
				-0.7425398230552673,
				-0.6698019504547119,
				3.483249599867122e-08
			],
			"scale":[
				1.000000238418579,
				0.9999979138374329,
				1
			],
			"translation":[
				-0.00018176634330302477,
				1.5193147659301758,
				-0.014938950538635254
			]
		},
		{
			"children":[
				34,
				35
			],
			"name":"Bone.001",
			"rotation":[
				-0.9968553185462952,
				-1.7248057458684188e-17,
				-2.730470857014406e-20,
				0.07924288511276245
			],
			"scale":[
				1,
				1,
				1.0000020265579224
			],
			"translation":[
				-4.901811442928939e-36,
				1.655781626701355,
				-2.0302832126617432e-07
			]
		},
		{
			"mesh":35,
			"name":"Pant1_botR",
			"rotation":[
				-0.7059962749481201,
				-4.399522142585287e-30,
				-4.399522142585287e-30,
				0.7082155346870422
			],
			"scale":[
				1,
				1.000000238418579,
				1.0000001192092896
			],
			"translation":[
				-0.00017124885926023126,
				-0.01881631650030613,
				-0.003386218100786209
			]
		},
		{
			"children":[
				36,
				37
			],
			"name":"Bone",
			"rotation":[
				0.7059963345527649,
				4.3995228949016716e-30,
				4.399522142585287e-30,
				0.7082155346870422
			],
			"scale":[
				1,
				1,
				0.9999998807907104
			]
		},
		{
			"children":[
				38
			],
			"name":"Armature_Pant1",
			"translation":[
				0,
				4.870569705963135,
				-7.317759990692139
			]
		},
		{
			"mesh":36,
			"name":"Pant2_main",
			"rotation":[
				-0.6932509541511536,
				-3.4365092460575397e-07,
				-3.305718792034895e-07,
				0.7206962704658508
			],
			"scale":[
				1,
				0.9999889731407166,
				1.000000238418579
			],
			"translation":[
				2.2095635188179585e-07,
				0.12485463917255402,
				-0.08868196606636047
			]
		},
		{
			"children":[
				40
			],
			"name":"Bone12",
			"rotation":[
				0.061063751578330994,
				-3.1568148702726395e-12,
				5.8235777089521434e-08,
				0.9981338977813721
			],
			"scale":[
				1,
				0.9999998807907104,
				0.9999998807907104
			],
			"translation":[
				4.3511968659225297e-13,
				1.4549939632415771,
				-2.384185791015625e-07
			]
		},
		{
			"mesh":37,
			"name":"Pant2_topR",
			"rotation":[
				-0.6677553057670593,
				-3.546426512457401e-07,
				-3.180171006533783e-07,
				0.7443809509277344
			],
			"scale":[
				1.0000001192092896,
				0.9999882578849792,
				0.9999996423721313
			],
			"translation":[
				-0.00018177634046878666,
				1.5217955112457275,
				0.012320637702941895
			]
		},
		{
			"children":[
				41,
				42
			],
			"name":"Bone11",
			"rotation":[
				0.9969066381454468,
				3.74774060674099e-08,
				4.7536528313685267e-07,
				0.0785948634147644
			],
			"scale":[
				1,
				1,
				1.0000113248825073
			],
			"translation":[
				0,
				1.680699110031128,
				-3.2782554626464844e-07
			]
		},
		{
			"mesh":38,
			"name":"Pant2_botR",
			"rotation":[
				5.348288212303487e-08,
				-0.7058088779449463,
				-0.7084022760391235,
				5.328708141405514e-08
			],
			"translation":[
				-0.00017124763689935207,
				0.00021287426352500916,
				0.003223121166229248
			]
		},
		{
			"children":[
				43,
				44
			],
			"name":"Bone10",
			"rotation":[
				-0.7084022760391235,
				4.699751058184155e-17,
				4.699751058184155e-17,
				0.7058088779449463
			]
		},
		{
			"children":[
				45
			],
			"name":"Armature_Pant2",
			"translation":[
				0,
				4.870673179626465,
				7.318318843841553
			]
		}
	],
	"animations":[
		{
			"channels":[
				{
					"sampler":0,
					"target":{
						"node":38,
						"path":"translation"
					}
				},
				{
					"sampler":1,
					"target":{
						"node":38,
						"path":"rotation"
					}
				},
				{
					"sampler":2,
					"target":{
						"node":38,
						"path":"scale"
					}
				},
				{
					"sampler":3,
					"target":{
						"node":36,
						"path":"translation"
					}
				},
				{
					"sampler":4,
					"target":{
						"node":36,
						"path":"rotation"
					}
				},
				{
					"sampler":5,
					"target":{
						"node":36,
						"path":"scale"
					}
				},
				{
					"sampler":6,
					"target":{
						"node":34,
						"path":"translation"
					}
				},
				{
					"sampler":7,
					"target":{
						"node":34,
						"path":"rotation"
					}
				},
				{
					"sampler":8,
					"target":{
						"node":34,
						"path":"scale"
					}
				}
			],
			"name":"Pant1_action",
			"samplers":[
				{
					"input":144,
					"interpolation":"STEP",
					"output":145
				},
				{
					"input":144,
					"interpolation":"LINEAR",
					"output":146
				},
				{
					"input":144,
					"interpolation":"STEP",
					"output":147
				},
				{
					"input":144,
					"interpolation":"LINEAR",
					"output":148
				},
				{
					"input":144,
					"interpolation":"LINEAR",
					"output":149
				},
				{
					"input":144,
					"interpolation":"STEP",
					"output":150
				},
				{
					"input":144,
					"interpolation":"LINEAR",
					"output":151
				},
				{
					"input":144,
					"interpolation":"LINEAR",
					"output":152
				},
				{
					"input":144,
					"interpolation":"STEP",
					"output":153
				}
			]
		},
		{
			"channels":[
				{
					"sampler":0,
					"target":{
						"node":45,
						"path":"translation"
					}
				},
				{
					"sampler":1,
					"target":{
						"node":45,
						"path":"rotation"
					}
				},
				{
					"sampler":2,
					"target":{
						"node":45,
						"path":"scale"
					}
				},
				{
					"sampler":3,
					"target":{
						"node":43,
						"path":"translation"
					}
				},
				{
					"sampler":4,
					"target":{
						"node":43,
						"path":"rotation"
					}
				},
				{
					"sampler":5,
					"target":{
						"node":43,
						"path":"scale"
					}
				},
				{
					"sampler":6,
					"target":{
						"node":41,
						"path":"translation"
					}
				},
				{
					"sampler":7,
					"target":{
						"node":41,
						"path":"rotation"
					}
				},
				{
					"sampler":8,
					"target":{
						"node":41,
						"path":"scale"
					}
				}
			],
			"name":"Pant2_action",
			"samplers":[
				{
					"input":144,
					"interpolation":"STEP",
					"output":154
				},
				{
					"input":144,
					"interpolation":"LINEAR",
					"output":155
				},
				{
					"input":144,
					"interpolation":"STEP",
					"output":156
				},
				{
					"input":144,
					"interpolation":"LINEAR",
					"output":157
				},
				{
					"input":144,
					"interpolation":"LINEAR",
					"output":158
				},
				{
					"input":144,
					"interpolation":"STEP",
					"output":159
				},
				{
					"input":144,
					"interpolation":"LINEAR",
					"output":160
				},
				{
					"input":144,
					"interpolation":"LINEAR",
					"output":161
				},
				{
					"input":144,
					"interpolation":"STEP",
					"output":162
				}
			]
		}
	],
	"materials":[
		{
			"alphaMode":"BLEND",
			"name":"01 - Default.001",
			"pbrMetallicRoughness":{
				"baseColorTexture":{
					"index":0
				},
				"metallicFactor":0,
				"roughnessFactor":0.4500536322593689
			}
		},
		{
			"name":"02 - Default.001",
			"pbrMetallicRoughness":{
				"baseColorTexture":{
					"index":1
				},
				"metallicFactor":0,
				"roughnessFactor":0.4500536322593689
			}
		},
		{
			"name":"03 - Default.001",
			"pbrMetallicRoughness":{
				"baseColorTexture":{
					"index":2
				},
				"metallicFactor":0,
				"roughnessFactor":0.4500536322593689
			}
		}
	],
	"meshes":[
		{
			"name":"Avtotormoz242.001",
			"primitives":[
				{
					"attributes":{
						"POSITION":0,
						"NORMAL":1,
						"TEXCOORD_0":2
					},
					"indices":3,
					"material":0
				}
			]
		},
		{
			"name":"Yashiki_AB.001",
			"primitives":[
				{
					"attributes":{
						"POSITION":4,
						"NORMAL":5,
						"TEXCOORD_0":6
					},
					"indices":7,
					"material":0
				}
			]
		},
		{
			"name":"SA-3-1.001",
			"primitives":[
				{
					"attributes":{
						"POSITION":8,
						"NORMAL":9,
						"TEXCOORD_0":10
					},
					"indices":11,
					"material":0
				}
			]
		},
		{
			"name":"OtP.001",
			"primitives":[
				{
					"attributes":{
						"POSITION":12,
						"NORMAL":13,
						"TEXCOORD_0":14
					},
					"indices":15,
					"material":0
				}
			]
		},
		{
			"name":"SA-3-2.001",
			"primitives":[
				{
					"attributes":{
						"POSITION":16,
						"NORMAL":17,
						"TEXCOORD_0":18
					},
					"indices":11,
					"material":0
				}
			]
		},
		{
			"name":"Koncevoy002.001",
			"primitives":[
				{
					"attributes":{
						"POSITION":19,
						"NORMAL":20,
						"TEXCOORD_0":21
					},
					"indices":22,
					"material":0
				}
			]
		},
		{
			"name":"Roof_blok.002",
			"primitives":[
				{
					"attributes":{
						"POSITION":23,
						"NORMAL":24,
						"TEXCOORD_0":25
					},
					"indices":26,
					"material":0
				}
			]
		},
		{
			"name":"Roof_blok.001",
			"primitives":[
				{
					"attributes":{
						"POSITION":27,
						"NORMAL":28,
						"TEXCOORD_0":29
					},
					"indices":30,
					"material":0
				}
			]
		},
		{
			"name":"Koncevie.001",
			"primitives":[
				{
					"attributes":{
						"POSITION":31,
						"NORMAL":32,
						"TEXCOORD_0":33
					},
					"indices":34,
					"material":0
				}
			]
		},
		{
			"name":"Koncevoy003.001",
			"primitives":[
				{
					"attributes":{
						"POSITION":35,
						"NORMAL":36,
						"TEXCOORD_0":37
					},
					"indices":38,
					"material":0
				}
			]
		},
		{
			"name":"RuchkiDver.001",
			"primitives":[
				{
					"attributes":{
						"POSITION":39,
						"NORMAL":40,
						"TEXCOORD_0":41
					},
					"indices":42,
					"material":0
				}
			]
		},
		{
			"name":"LESTN.001",
			"primitives":[
				{
					"attributes":{
						"POSITION":43,
						"NORMAL":44,
						"TEXCOORD_0":45
					},
					"indices":46,
					"material":0
				}
			]
		},
		{
			"name":"Ornament.001",
			"primitives":[
				{
					"attributes":{
						"POSITION":47,
						"NORMAL":48,
						"TEXCOORD_0":49
					},
					"indices":50,
					"material":1
				}
			]
		},
		{
			"name":"SandTrube.001",
			"primitives":[
				{
					"attributes":{
						"POSITION":51,
						"NORMAL":52,
						"TEXCOORD_0":53
					},
					"indices":54,
					"material":1
				}
			]
		},
		{
			"name":"cabNomer.001",
			"primitives":[
				{
					"attributes":{
						"POSITION":55,
						"NORMAL":56,
						"TEXCOORD_0":57
					},
					"indices":58,
					"material":1
				}
			]
		},
		{
			"name":"KorpCab.001",
			"primitives":[
				{
					"attributes":{
						"POSITION":59,
						"NORMAL":60,
						"TEXCOORD_0":61
					},
					"indices":62,
					"material":0
				}
			]
		},
		{
			"name":"KorpCab2.001",
			"primitives":[
				{
					"attributes":{
						"POSITION":63,
						"NORMAL":64,
						"TEXCOORD_0":65
					},
					"indices":62,
					"material":0
				}
			]
		},
		{
			"name":"AntenaUKV.001",
			"primitives":[
				{
					"attributes":{
						"POSITION":66,
						"NORMAL":67,
						"TEXCOORD_0":68
					},
					"indices":69,
					"material":1
				}
			]
		},
		{
			"name":"Poruchni.001",
			"primitives":[
				{
					"attributes":{
						"POSITION":70,
						"NORMAL":71,
						"TEXCOORD_0":72
					},
					"indices":73,
					"material":0
				}
			]
		},
		{
			"name":"Cepochka.001",
			"primitives":[
				{
					"attributes":{
						"POSITION":74,
						"NORMAL":75,
						"TEXCOORD_0":76
					},
					"indices":77,
					"material":1
				}
			]
		},
		{
			"name":"Wheel-1.001",
			"primitives":[
				{
					"attributes":{
						"POSITION":78,
						"NORMAL":79,
						"TEXCOORD_0":80
					},
					"indices":81,
					"material":2
				}
			]
		},
		{
			"name":"Wheel-2.001",
			"primitives":[
				{
					"attributes":{
						"POSITION":82,
						"NORMAL":83,
						"TEXCOORD_0":84
					},
					"indices":81,
					"material":2
				}
			]
		},
		{
			"name":"Boige1.001",
			"primitives":[
				{
					"attributes":{
						"POSITION":85,
						"NORMAL":86,
						"TEXCOORD_0":87
					},
					"indices":88,
					"material":1
				}
			]
		},
		{
			"name":"Wheel-3.001",
			"primitives":[
				{
					"attributes":{
						"POSITION":89,
						"NORMAL":90,
						"TEXCOORD_0":91
					},
					"indices":81,
					"material":2
				}
			]
		},
		{
			"name":"Wheel-4.001",
			"primitives":[
				{
					"attributes":{
						"POSITION":92,
						"NORMAL":93,
						"TEXCOORD_0":94
					},
					"indices":81,
					"material":2
				}
			]
		},
		{
			"name":"Boige2.001",
			"primitives":[
				{
					"attributes":{
						"POSITION":95,
						"NORMAL":96,
						"TEXCOORD_0":97
					},
					"indices":98,
					"material":1
				}
			]
		},
		{
			"name":"Wheel-5.001",
			"primitives":[
				{
					"attributes":{
						"POSITION":99,
						"NORMAL":100,
						"TEXCOORD_0":101
					},
					"indices":81,
					"material":2
				}
			]
		},
		{
			"name":"Wheel-6.001",
			"primitives":[
				{
					"attributes":{
						"POSITION":102,
						"NORMAL":103,
						"TEXCOORD_0":104
					},
					"indices":81,
					"material":2
				}
			]
		},
		{
			"name":"Boige3.001",
			"primitives":[
				{
					"attributes":{
						"POSITION":105,
						"NORMAL":106,
						"TEXCOORD_0":107
					},
					"indices":88,
					"material":1
				}
			]
		},
		{
			"name":"Pant_Rama1.001",
			"primitives":[
				{
					"attributes":{
						"POSITION":108,
						"NORMAL":109,
						"TEXCOORD_0":110
					},
					"indices":111,
					"material":0
				}
			]
		},
		{
			"name":"Pant_Rama2.001",
			"primitives":[
				{
					"attributes":{
						"POSITION":112,
						"NORMAL":113,
						"TEXCOORD_0":114
					},
					"indices":111,
					"material":0
				}
			]
		},
		{
			"name":"Body.001",
			"primitives":[
				{
					"attributes":{
						"POSITION":115,
						"NORMAL":116,
						"TEXCOORD_0":117
					},
					"indices":118,
					"material":0
				}
			]
		},
		{
			"name":"razcep.001",
			"primitives":[
				{
					"attributes":{
						"POSITION":119,
						"NORMAL":120,
						"TEXCOORD_0":121
					},
					"indices":122,
					"material":0
				}
			]
		},
		{
			"name":"Pant1_main.001",
			"primitives":[
				{
					"attributes":{
						"POSITION":123,
						"NORMAL":124,
						"TEXCOORD_0":125
					},
					"indices":126,
					"material":0
				}
			]
		},
		{
			"name":"Pant1_topR.001",
			"primitives":[
				{
					"attributes":{
						"POSITION":127,
						"NORMAL":128,
						"TEXCOORD_0":129
					},
					"indices":130,
					"material":0
				}
			]
		},
		{
			"name":"Pant1_botR.001",
			"primitives":[
				{
					"attributes":{
						"POSITION":131,
						"NORMAL":132,
						"TEXCOORD_0":133
					},
					"indices":134,
					"material":0
				}
			]
		},
		{
			"name":"Pant2_main.001",
			"primitives":[
				{
					"attributes":{
						"POSITION":135,
						"NORMAL":136,
						"TEXCOORD_0":137
					},
					"indices":126,
					"material":0
				}
			]
		},
		{
			"name":"Pant2_topR.001",
			"primitives":[
				{
					"attributes":{
						"POSITION":138,
						"NORMAL":139,
						"TEXCOORD_0":140
					},
					"indices":130,
					"material":0
				}
			]
		},
		{
			"name":"Pant2_botR.001",
			"primitives":[
				{
					"attributes":{
						"POSITION":141,
						"NORMAL":142,
						"TEXCOORD_0":143
					},
					"indices":134,
					"material":0
				}
			]
		}
	],
	"textures":[
		{
			"sampler":0,
			"source":0
		},
		{
			"sampler":0,
			"source":1
		},
		{
			"sampler":0,
			"source":2
		}
	],
	"images":[
		{
			"mimeType":"image/png",
			"name":"kuzov",
			"uri":"textures/kuzov.png"
		},
		{
			"mimeType":"image/png",
			"name":"windows",
			"uri":"textures/windows.png"
		},
		{
			"mimeType":"image/jpeg",
			"name":"KP_VL",
			"uri":"textures/KP_VL.jpg"
		}
	],
	"skins":[
		{
			"inverseBindMatrices":163,
			"joints":[
				38,
				36,
				34
			],
			"name":"Armature_Pant1"
		},
		{
			"inverseBindMatrices":164,
			"joints":[
				45,
				43,
				41
			],
			"name":"Armature_Pant2"
		}
	],
	"accessors":[
		{
			"bufferView":0,
			"componentType":5126,
			"count":222,
			"max":[
				-0.6213110089302063,
				1.1372225284576416,
				-3.2993569374084473
			],
			"min":[
				-1.2923541069030762,
				0.4727291166782379,
				-4.192739486694336
			],
			"type":"VEC3"
		},
		{
			"bufferView":1,
			"componentType":5126,
			"count":222,
			"type":"VEC3"
		},
		{
			"bufferView":2,
			"componentType":5126,
			"count":222,
			"type":"VEC2"
		},
		{
			"bufferView":3,
			"componentType":5123,
			"count":582,
			"type":"SCALAR"
		},
		{
			"bufferView":4,
			"componentType":5126,
			"count":280,
			"max":[
				0.28469932079315186,
				0.2653142213821411,
				3.854084014892578
			],
			"min":[
				-0.28469932079315186,
				-0.2653142213821411,
				-3.854084014892578
			],
			"type":"VEC3"
		},
		{
			"bufferView":5,
			"componentType":5126,
			"count":280,
			"type":"VEC3"
		},
		{
			"bufferView":6,
			"componentType":5126,
			"count":280,
			"type":"VEC2"
		},
		{
			"bufferView":7,
			"componentType":5123,
			"count":480,
			"type":"SCALAR"
		},
		{
			"bufferView":8,
			"componentType":5126,
			"count":380,
			"max":[
				0.28849464654922485,
				1.310839295387268,
				11.337986946105957
			],
			"min":[
				-0.28833645582199097,
				0.7105749845504761,
				10.364773750305176
			],
			"type":"VEC3"
		},
		{
			"bufferView":9,
			"componentType":5126,
			"count":380,
			"type":"VEC3"
		},
		{
			"bufferView":10,
			"componentType":5126,
			"count":380,
			"type":"VEC2"
		},
		{
			"bufferView":11,
			"componentType":5123,
			"count":660,
			"type":"SCALAR"
		},
		{
			"bufferView":12,
			"componentType":5126,
			"count":534,
			"max":[
				1.193172812461853,
				1.1194877624511719,
				10.816184043884277
			],
			"min":[
				-1.1931713819503784,
				0.42617714405059814,
				-10.816182136535645
			],
			"type":"VEC3"
		},
		{
			"bufferView":13,
			"componentType":5126,
			"count":534,
			"type":"VEC3"
		},
		{
			"bufferView":14,
			"componentType":5126,
			"count":534,
			"type":"VEC2"
		},
		{
			"bufferView":15,
			"componentType":5123,
			"count":2016,
			"type":"SCALAR"
		},
		{
			"bufferView":16,
			"componentType":5126,
			"count":380,
			"max":[
				0.28849464654922485,
				1.310839295387268,
				11.337986946105957
			],
			"min":[
				-0.28833645582199097,
				0.7105749845504761,
				10.364773750305176
			],
			"type":"VEC3"
		},
		{
			"bufferView":17,
			"componentType":5126,
			"count":380,
			"type":"VEC3"
		},
		{
			"bufferView":18,
			"componentType":5126,
			"count":380,
			"type":"VEC2"
		},
		{
			"bufferView":19,
			"componentType":5126,
			"count":284,
			"max":[
				0.5761280059814453,
				1.34562087059021,
				10.280521392822266
			],
			"min":[
				-0.699328601360321,
				0.8908331394195557,
				9.422162055969238
			],
			"type":"VEC3"
		},
		{
			"bufferView":20,
			"componentType":5126,
			"count":284,
			"type":"VEC3"
		},
		{
			"bufferView":21,
			"componentType":5126,
			"count":284,
			"type":"VEC2"
		},
		{
			"bufferView":22,
			"componentType":5123,
			"count":624,
			"type":"SCALAR"
		},
		{
			"bufferView":23,
			"componentType":5126,
			"count":20,
			"max":[
				-0.10660445690155029,
				0.013202667236328125,
				0.0153886079788208
			],
			"min":[
				-0.3909757435321808,
				-0.013203144073486328,
				-0.015385985374450684
			],
			"type":"VEC3"
		},
		{
			"bufferView":24,
			"componentType":5126,
			"count":20,
			"type":"VEC3"
		},
		{
			"bufferView":25,
			"componentType":5126,
			"count":20,
			"type":"VEC2"
		},
		{
			"bufferView":26,
			"componentType":5123,
			"count":30,
			"type":"SCALAR"
		},
		{
			"bufferView":27,
			"componentType":5126,
			"count":10349,
			"max":[
				1.1905587911605835,
				5.226953029632568,
				8.21682357788086
			],
			"min":[
				-1.1905587911605835,
				4.1624274253845215,
				-8.072685241699219
			],
			"type":"VEC3"
		},
		{
			"bufferView":28,
			"componentType":5126,
			"count":10349,
			"type":"VEC3"
		},
		{
			"bufferView":29,
			"componentType":5126,
			"count":10349,
			"type":"VEC2"
		},
		{
			"bufferView":30,
			"componentType":5123,
			"count":23328,
			"type":"SCALAR"
		},
		{
			"bufferView":31,
			"componentType":5126,
			"count":960,
			"max":[
				1.0864522457122803,
				1.7213211059570312,
				18.542015075683594
			],
			"min":[
				-1.08645498752594,
				0.32014739513397217,
				-18.187294006347656
			],
			"type":"VEC3"
		},
		{
			"bufferView":32,
			"componentType":5126,
			"count":960,
			"type":"VEC3"
		},
		{
			"bufferView":33,
			"componentType":5126,
			"count":960,
			"type":"VEC2"
		},
		{
			"bufferView":34,
			"componentType":5123,
			"count":3036,
			"type":"SCALAR"
		},
		{
			"bufferView":35,
			"componentType":5126,
			"count":284,
			"max":[
				0.5761280059814453,
				1.34562087059021,
				10.18354320526123
			],
			"min":[
				-0.699328601360321,
				0.9003435373306274,
				9.422162055969238
			],
			"type":"VEC3"
		},
		{
			"bufferView":36,
			"componentType":5126,
			"count":284,
			"type":"VEC3"
		},
		{
			"bufferView":37,
			"componentType":5126,
			"count":284,
			"type":"VEC2"
		},
		{
			"bufferView":38,
			"componentType":5123,
			"count":624,
			"type":"SCALAR"
		},
		{
			"bufferView":39,
			"componentType":5126,
			"count":204,
			"max":[
				1.655881404876709,
				3.044295310974121,
				7.871281623840332
			],
			"min":[
				-1.6558812856674194,
				2.8128514289855957,
				-7.871281623840332
			],
			"type":"VEC3"
		},
		{
			"bufferView":40,
			"componentType":5126,
			"count":204,
			"type":"VEC3"
		},
		{
			"bufferView":41,
			"componentType":5126,
			"count":204,
			"type":"VEC2"
		},
		{
			"bufferView":42,
			"componentType":5123,
			"count":372,
			"type":"SCALAR"
		},
		{
			"bufferView":43,
			"componentType":5126,
			"count":592,
			"max":[
				1.5808523893356323,
				0.9266452789306641,
				8.105240821838379
			],
			"min":[
				-1.5808522701263428,
				0.39240145683288574,
				-8.105242729187012
			],
			"type":"VEC3"
		},
		{
			"bufferView":44,
			"componentType":5126,
			"count":592,
			"type":"VEC3"
		},
		{
			"bufferView":45,
			"componentType":5126,
			"count":592,
			"type":"VEC2"
		},
		{
			"bufferView":46,
			"componentType":5123,
			"count":1296,
			"type":"SCALAR"
		},
		{
			"bufferView":47,
			"componentType":5126,
			"count":142,
			"max":[
				1.5892828702926636,
				3.6158719062805176,
				8.975506782531738
			],
			"min":[
				-1.5892828702926636,
				3.3270797729492188,
				-8.975506782531738
			],
			"type":"VEC3"
		},
		{
			"bufferView":48,
			"componentType":5126,
			"count":142,
			"type":"VEC3"
		},
		{
			"bufferView":49,
			"componentType":5126,
			"count":142,
			"type":"VEC2"
		},
		{
			"bufferView":50,
			"componentType":5123,
			"count":378,
			"type":"SCALAR"
		},
		{
			"bufferView":51,
			"componentType":5126,
			"count":240,
			"max":[
				0.8996226191520691,
				1.0613176822662354,
				9.498827934265137
			],
			"min":[
				-0.8996212482452393,
				0.07087841629981995,
				-9.408455848693848
			],
			"type":"VEC3"
		},
		{
			"bufferView":52,
			"componentType":5126,
			"count":240,
			"type":"VEC3"
		},
		{
			"bufferView":53,
			"componentType":5126,
			"count":240,
			"type":"VEC2"
		},
		{
			"bufferView":54,
			"componentType":5123,
			"count":912,
			"type":"SCALAR"
		},
		{
			"bufferView":55,
			"componentType":5126,
			"count":16,
			"max":[
				17.73809814453125,
				37.29450225830078,
				146.52734375
			],
			"min":[
				-17.738082885742188,
				35.171871185302734,
				-146.2775421142578
			],
			"type":"VEC3"
		},
		{
			"bufferView":56,
			"componentType":5126,
			"count":16,
			"type":"VEC3"
		},
		{
			"bufferView":57,
			"componentType":5126,
			"count":16,
			"type":"VEC2"
		},
		{
			"bufferView":58,
			"componentType":5123,
			"count":24,
			"type":"SCALAR"
		},
		{
			"bufferView":59,
			"componentType":5126,
			"count":1882,
			"max":[
				1.6061725616455078,
				4.620022296905518,
				-8.561256408691406
			],
			"min":[
				-1.6061699390411377,
				0.13297101855278015,
				-10.951567649841309
			],
			"type":"VEC3"
		},
		{
			"bufferView":60,
			"componentType":5126,
			"count":1882,
			"type":"VEC3"
		},
		{
			"bufferView":61,
			"componentType":5126,
			"count":1882,
			"type":"VEC2"
		},
		{
			"bufferView":62,
			"componentType":5123,
			"count":4278,
			"type":"SCALAR"
		},
		{
			"bufferView":63,
			"componentType":5126,
			"count":1882,
			"max":[
				1.6061725616455078,
				4.620022296905518,
				-8.561256408691406
			],
			"min":[
				-1.6061699390411377,
				0.13297101855278015,
				-10.951567649841309
			],
			"type":"VEC3"
		},
		{
			"bufferView":64,
			"componentType":5126,
			"count":1882,
			"type":"VEC3"
		},
		{
			"bufferView":65,
			"componentType":5126,
			"count":1882,
			"type":"VEC2"
		},
		{
			"bufferView":66,
			"componentType":5126,
			"count":328,
			"max":[
				4.637091159820557,
				4.591930389404297,
				232.08956909179688
			],
			"min":[
				-4.637091159820557,
				-4.591931343078613,
				-232.08958435058594
			],
			"type":"VEC3"
		},
		{
			"bufferView":67,
			"componentType":5126,
			"count":328,
			"type":"VEC3"
		},
		{
			"bufferView":68,
			"componentType":5126,
			"count":328,
			"type":"VEC2"
		},
		{
			"bufferView":69,
			"componentType":5123,
			"count":1056,
			"type":"SCALAR"
		},
		{
			"bufferView":70,
			"componentType":5126,
			"count":528,
			"max":[
				1.7227522134780884,
				3.380976915359497,
				8.338988304138184
			],
			"min":[
				-1.7227522134780884,
				1.3079054355621338,
				-8.338988304138184
			],
			"type":"VEC3"
		},
		{
			"bufferView":71,
			"componentType":5126,
			"count":528,
			"type":"VEC3"
		},
		{
			"bufferView":72,
			"componentType":5126,
			"count":528,
			"type":"VEC2"
		},
		{
			"bufferView":73,
			"componentType":5123,
			"count":768,
			"type":"SCALAR"
		},
		{
			"bufferView":74,
			"componentType":5126,
			"count":272,
			"max":[
				0.3284425437450409,
				1.0148085355758667,
				11.034835815429688
			],
			"min":[
				-0.3284442126750946,
				0.7824047207832336,
				-11.034835815429688
			],
			"type":"VEC3"
		},
		{
			"bufferView":75,
			"componentType":5126,
			"count":272,
			"type":"VEC3"
		},
		{
			"bufferView":76,
			"componentType":5126,
			"count":272,
			"type":"VEC2"
		},
		{
			"bufferView":77,
			"componentType":5123,
			"count":336,
			"type":"SCALAR"
		},
		{
			"bufferView":78,
			"componentType":5126,
			"count":2026,
			"max":[
				0.8682957291603088,
				0.6421945095062256,
				0.642194390296936
			],
			"min":[
				-0.8682957291603088,
				-0.6421942710876465,
				-0.6421944499015808
			],
			"type":"VEC3"
		},
		{
			"bufferView":79,
			"componentType":5126,
			"count":2026,
			"type":"VEC3"
		},
		{
			"bufferView":80,
			"componentType":5126,
			"count":2026,
			"type":"VEC2"
		},
		{
			"bufferView":81,
			"componentType":5123,
			"count":6360,
			"type":"SCALAR"
		},
		{
			"bufferView":82,
			"componentType":5126,
			"count":2026,
			"max":[
				0.8682957291603088,
				0.6421945095062256,
				0.642194390296936
			],
			"min":[
				-0.8682957291603088,
				-0.6421942710876465,
				-0.6421944499015808
			],
			"type":"VEC3"
		},
		{
			"bufferView":83,
			"componentType":5126,
			"count":2026,
			"type":"VEC3"
		},
		{
			"bufferView":84,
			"componentType":5126,
			"count":2026,
			"type":"VEC2"
		},
		{
			"bufferView":85,
			"componentType":5126,
			"count":15094,
			"max":[
				1.6484870910644531,
				1.4098306894302368,
				2.4109854698181152
			],
			"min":[
				-1.6484870910644531,
				0.12738651037216187,
				-3.5091898441314697
			],
			"type":"VEC3"
		},
		{
			"bufferView":86,
			"componentType":5126,
			"count":15094,
			"type":"VEC3"
		},
		{
			"bufferView":87,
			"componentType":5126,
			"count":15094,
			"type":"VEC2"
		},
		{
			"bufferView":88,
			"componentType":5123,
			"count":32106,
			"type":"SCALAR"
		},
		{
			"bufferView":89,
			"componentType":5126,
			"count":2026,
			"max":[
				0.8682957291603088,
				0.6421945095062256,
				0.642194390296936
			],
			"min":[
				-0.8682957291603088,
				-0.6421942710876465,
				-0.6421944499015808
			],
			"type":"VEC3"
		},
		{
			"bufferView":90,
			"componentType":5126,
			"count":2026,
			"type":"VEC3"
		},
		{
			"bufferView":91,
			"componentType":5126,
			"count":2026,
			"type":"VEC2"
		},
		{
			"bufferView":92,
			"componentType":5126,
			"count":2026,
			"max":[
				0.8682957291603088,
				0.6421945095062256,
				0.642194390296936
			],
			"min":[
				-0.8682957291603088,
				-0.6421942710876465,
				-0.6421944499015808
			],
			"type":"VEC3"
		},
		{
			"bufferView":93,
			"componentType":5126,
			"count":2026,
			"type":"VEC3"
		},
		{
			"bufferView":94,
			"componentType":5126,
			"count":2026,
			"type":"VEC2"
		},
		{
			"bufferView":95,
			"componentType":5126,
			"count":16318,
			"max":[
				1.5763193368911743,
				1.4098308086395264,
				3.521840810775757
			],
			"min":[
				-1.5763190984725952,
				0.12738648056983948,
				-2.3983347415924072
			],
			"type":"VEC3"
		},
		{
			"bufferView":96,
			"componentType":5126,
			"count":16318,
			"type":"VEC3"
		},
		{
			"bufferView":97,
			"componentType":5126,
			"count":16318,
			"type":"VEC2"
		},
		{
			"bufferView":98,
			"componentType":5123,
			"count":34692,
			"type":"SCALAR"
		},
		{
			"bufferView":99,
			"componentType":5126,
			"count":2026,
			"max":[
				0.8682957291603088,
				0.6421945095062256,
				0.642194390296936
			],
			"min":[
				-0.8682957291603088,
				-0.6421942710876465,
				-0.6421944499015808
			],
			"type":"VEC3"
		},
		{
			"bufferView":100,
			"componentType":5126,
			"count":2026,
			"type":"VEC3"
		},
		{
			"bufferView":101,
			"componentType":5126,
			"count":2026,
			"type":"VEC2"
		},
		{
			"bufferView":102,
			"componentType":5126,
			"count":2026,
			"max":[
				0.8682957291603088,
				0.6421945095062256,
				0.642194390296936
			],
			"min":[
				-0.8682957291603088,
				-0.6421942710876465,
				-0.6421944499015808
			],
			"type":"VEC3"
		},
		{
			"bufferView":103,
			"componentType":5126,
			"count":2026,
			"type":"VEC3"
		},
		{
			"bufferView":104,
			"componentType":5126,
			"count":2026,
			"type":"VEC2"
		},
		{
			"bufferView":105,
			"componentType":5126,
			"count":15094,
			"max":[
				1.6484870910644531,
				1.4098306894302368,
				2.4109854698181152
			],
			"min":[
				-1.6484870910644531,
				0.12738651037216187,
				-3.5091898441314697
			],
			"type":"VEC3"
		},
		{
			"bufferView":106,
			"componentType":5126,
			"count":15094,
			"type":"VEC3"
		},
		{
			"bufferView":107,
			"componentType":5126,
			"count":15094,
			"type":"VEC2"
		},
		{
			"bufferView":108,
			"componentType":5126,
			"count":2370,
			"max":[
				0.497433602809906,
				5.123096466064453,
				-6.90388298034668
			],
			"min":[
				-0.4987083673477173,
				4.2979865074157715,
				-7.764128684997559
			],
			"type":"VEC3"
		},
		{
			"bufferView":109,
			"componentType":5126,
			"count":2370,
			"type":"VEC3"
		},
		{
			"bufferView":110,
			"componentType":5126,
			"count":2370,
			"type":"VEC2"
		},
		{
			"bufferView":111,
			"componentType":5123,
			"count":5226,
			"type":"SCALAR"
		},
		{
			"bufferView":112,
			"componentType":5126,
			"count":2370,
			"max":[
				0.497433602809906,
				5.123096466064453,
				-6.90388298034668
			],
			"min":[
				-0.4987083673477173,
				4.2979865074157715,
				-7.764128684997559
			],
			"type":"VEC3"
		},
		{
			"bufferView":113,
			"componentType":5126,
			"count":2370,
			"type":"VEC3"
		},
		{
			"bufferView":114,
			"componentType":5126,
			"count":2370,
			"type":"VEC2"
		},
		{
			"bufferView":115,
			"componentType":5126,
			"count":4219,
			"max":[
				1.6405258178710938,
				5.169177532196045,
				10.86924934387207
			],
			"min":[
				-1.6405270099639893,
				0.3965820372104645,
				-10.86924934387207
			],
			"type":"VEC3"
		},
		{
			"bufferView":116,
			"componentType":5126,
			"count":4219,
			"type":"VEC3"
		},
		{
			"bufferView":117,
			"componentType":5126,
			"count":4219,
			"type":"VEC2"
		},
		{
			"bufferView":118,
			"componentType":5123,
			"count":9126,
			"type":"SCALAR"
		},
		{
			"bufferView":119,
			"componentType":5126,
			"count":276,
			"max":[
				4.899606704711914,
				3.9952616691589355,
				54.67160415649414
			],
			"min":[
				-4.899613857269287,
				2.0132837295532227,
				-54.67161178588867
			],
			"type":"VEC3"
		},
		{
			"bufferView":120,
			"componentType":5126,
			"count":276,
			"type":"VEC3"
		},
		{
			"bufferView":121,
			"componentType":5126,
			"count":276,
			"type":"VEC2"
		},
		{
			"bufferView":122,
			"componentType":5123,
			"count":816,
			"type":"SCALAR"
		},
		{
			"bufferView":123,
			"componentType":5126,
			"count":452,
			"max":[
				1.1832647323608398,
				0.00034593045711517334,
				0.13417896628379822
			],
			"min":[
				-1.184252381324768,
				-0.3995630741119385,
				-0.18283995985984802
			],
			"type":"VEC3"
		},
		{
			"bufferView":124,
			"componentType":5126,
			"count":452,
			"type":"VEC3"
		},
		{
			"bufferView":125,
			"componentType":5126,
			"count":452,
			"type":"VEC2"
		},
		{
			"bufferView":126,
			"componentType":5123,
			"count":876,
			"type":"SCALAR"
		},
		{
			"bufferView":127,
			"componentType":5126,
			"count":445,
			"max":[
				0.6106122136116028,
				0.0341801792383194,
				0.13313496112823486
			],
			"min":[
				-0.6109045743942261,
				-0.27374038100242615,
				-1.6818082332611084
			],
			"type":"VEC3"
		},
		{
			"bufferView":128,
			"componentType":5126,
			"count":445,
			"type":"VEC3"
		},
		{
			"bufferView":129,
			"componentType":5126,
			"count":445,
			"type":"VEC2"
		},
		{
			"bufferView":130,
			"componentType":5123,
			"count":834,
			"type":"SCALAR"
		},
		{
			"bufferView":131,
			"componentType":5126,
			"count":252,
			"max":[
				0.20259317755699158,
				0.05622578039765358,
				1.8508740663528442
			],
			"min":[
				-0.20167176425457,
				-0.14367374777793884,
				-0.0787133052945137
			],
			"type":"VEC3"
		},
		{
			"bufferView":132,
			"componentType":5126,
			"count":252,
			"type":"VEC3"
		},
		{
			"bufferView":133,
			"componentType":5126,
			"count":252,
			"type":"VEC2"
		},
		{
			"bufferView":134,
			"componentType":5123,
			"count":528,
			"type":"SCALAR"
		},
		{
			"bufferView":135,
			"componentType":5126,
			"count":452,
			"max":[
				1.1832647323608398,
				0.00034593045711517334,
				0.13417896628379822
			],
			"min":[
				-1.184252381324768,
				-0.3995630741119385,
				-0.18283995985984802
			],
			"type":"VEC3"
		},
		{
			"bufferView":136,
			"componentType":5126,
			"count":452,
			"type":"VEC3"
		},
		{
			"bufferView":137,
			"componentType":5126,
			"count":452,
			"type":"VEC2"
		},
		{
			"bufferView":138,
			"componentType":5126,
			"count":445,
			"max":[
				0.6106122136116028,
				0.0341801792383194,
				0.13313496112823486
			],
			"min":[
				-0.6109045743942261,
				-0.27374038100242615,
				-1.6818082332611084
			],
			"type":"VEC3"
		},
		{
			"bufferView":139,
			"componentType":5126,
			"count":445,
			"type":"VEC3"
		},
		{
			"bufferView":140,
			"componentType":5126,
			"count":445,
			"type":"VEC2"
		},
		{
			"bufferView":141,
			"componentType":5126,
			"count":252,
			"max":[
				0.20259305834770203,
				0.05622578039765358,
				1.8508740663528442
			],
			"min":[
				-0.20167173445224762,
				-0.14367374777793884,
				-0.07871336489915848
			],
			"type":"VEC3"
		},
		{
			"bufferView":142,
			"componentType":5126,
			"count":252,
			"type":"VEC3"
		},
		{
			"bufferView":143,
			"componentType":5126,
			"count":252,
			"type":"VEC2"
		},
		{
			"bufferView":144,
			"componentType":5126,
			"count":2,
			"max":[
				1
			],
			"min":[
				0
			],
			"type":"SCALAR"
		},
		{
			"bufferView":145,
			"componentType":5126,
			"count":2,
			"type":"VEC3"
		},
		{
			"bufferView":146,
			"componentType":5126,
			"count":2,
			"type":"VEC4"
		},
		{
			"bufferView":147,
			"componentType":5126,
			"count":2,
			"type":"VEC3"
		},
		{
			"bufferView":148,
			"componentType":5126,
			"count":2,
			"type":"VEC3"
		},
		{
			"bufferView":149,
			"componentType":5126,
			"count":2,
			"type":"VEC4"
		},
		{
			"bufferView":150,
			"componentType":5126,
			"count":2,
			"type":"VEC3"
		},
		{
			"bufferView":151,
			"componentType":5126,
			"count":2,
			"type":"VEC3"
		},
		{
			"bufferView":152,
			"componentType":5126,
			"count":2,
			"type":"VEC4"
		},
		{
			"bufferView":153,
			"componentType":5126,
			"count":2,
			"type":"VEC3"
		},
		{
			"bufferView":154,
			"componentType":5126,
			"count":2,
			"type":"VEC3"
		},
		{
			"bufferView":155,
			"componentType":5126,
			"count":2,
			"type":"VEC4"
		},
		{
			"bufferView":156,
			"componentType":5126,
			"count":2,
			"type":"VEC3"
		},
		{
			"bufferView":157,
			"componentType":5126,
			"count":2,
			"type":"VEC3"
		},
		{
			"bufferView":158,
			"componentType":5126,
			"count":2,
			"type":"VEC4"
		},
		{
			"bufferView":159,
			"componentType":5126,
			"count":2,
			"type":"VEC3"
		},
		{
			"bufferView":160,
			"componentType":5126,
			"count":2,
			"type":"VEC3"
		},
		{
			"bufferView":161,
			"componentType":5126,
			"count":2,
			"type":"VEC4"
		},
		{
			"bufferView":162,
			"componentType":5126,
			"count":2,
			"type":"VEC3"
		},
		{
			"bufferView":163,
			"componentType":5126,
			"count":3,
			"type":"MAT4"
		},
		{
			"bufferView":164,
			"componentType":5126,
			"count":3,
			"type":"MAT4"
		}
	],
	"bufferViews":[
		{
			"buffer":0,
			"byteLength":2664,
			"byteOffset":0,
			"target":34962
		},
		{
			"buffer":0,
			"byteLength":2664,
			"byteOffset":2664,
			"target":34962
		},
		{
			"buffer":0,
			"byteLength":1776,
			"byteOffset":5328,
			"target":34962
		},
		{
			"buffer":0,
			"byteLength":1164,
			"byteOffset":7104,
			"target":34963
		},
		{
			"buffer":0,
			"byteLength":3360,
			"byteOffset":8268,
			"target":34962
		},
		{
			"buffer":0,
			"byteLength":3360,
			"byteOffset":11628,
			"target":34962
		},
		{
			"buffer":0,
			"byteLength":2240,
			"byteOffset":14988,
			"target":34962
		},
		{
			"buffer":0,
			"byteLength":960,
			"byteOffset":17228,
			"target":34963
		},
		{
			"buffer":0,
			"byteLength":4560,
			"byteOffset":18188,
			"target":34962
		},
		{
			"buffer":0,
			"byteLength":4560,
			"byteOffset":22748,
			"target":34962
		},
		{
			"buffer":0,
			"byteLength":3040,
			"byteOffset":27308,
			"target":34962
		},
		{
			"buffer":0,
			"byteLength":1320,
			"byteOffset":30348,
			"target":34963
		},
		{
			"buffer":0,
			"byteLength":6408,
			"byteOffset":31668,
			"target":34962
		},
		{
			"buffer":0,
			"byteLength":6408,
			"byteOffset":38076,
			"target":34962
		},
		{
			"buffer":0,
			"byteLength":4272,
			"byteOffset":44484,
			"target":34962
		},
		{
			"buffer":0,
			"byteLength":4032,
			"byteOffset":48756,
			"target":34963
		},
		{
			"buffer":0,
			"byteLength":4560,
			"byteOffset":52788,
			"target":34962
		},
		{
			"buffer":0,
			"byteLength":4560,
			"byteOffset":57348,
			"target":34962
		},
		{
			"buffer":0,
			"byteLength":3040,
			"byteOffset":61908,
			"target":34962
		},
		{
			"buffer":0,
			"byteLength":3408,
			"byteOffset":64948,
			"target":34962
		},
		{
			"buffer":0,
			"byteLength":3408,
			"byteOffset":68356,
			"target":34962
		},
		{
			"buffer":0,
			"byteLength":2272,
			"byteOffset":71764,
			"target":34962
		},
		{
			"buffer":0,
			"byteLength":1248,
			"byteOffset":74036,
			"target":34963
		},
		{
			"buffer":0,
			"byteLength":240,
			"byteOffset":75284,
			"target":34962
		},
		{
			"buffer":0,
			"byteLength":240,
			"byteOffset":75524,
			"target":34962
		},
		{
			"buffer":0,
			"byteLength":160,
			"byteOffset":75764,
			"target":34962
		},
		{
			"buffer":0,
			"byteLength":60,
			"byteOffset":75924,
			"target":34963
		},
		{
			"buffer":0,
			"byteLength":124188,
			"byteOffset":75984,
			"target":34962
		},
		{
			"buffer":0,
			"byteLength":124188,
			"byteOffset":200172,
			"target":34962
		},
		{
			"buffer":0,
			"byteLength":82792,
			"byteOffset":324360,
			"target":34962
		},
		{
			"buffer":0,
			"byteLength":46656,
			"byteOffset":407152,
			"target":34963
		},
		{
			"buffer":0,
			"byteLength":11520,
			"byteOffset":453808,
			"target":34962
		},
		{
			"buffer":0,
			"byteLength":11520,
			"byteOffset":465328,
			"target":34962
		},
		{
			"buffer":0,
			"byteLength":7680,
			"byteOffset":476848,
			"target":34962
		},
		{
			"buffer":0,
			"byteLength":6072,
			"byteOffset":484528,
			"target":34963
		},
		{
			"buffer":0,
			"byteLength":3408,
			"byteOffset":490600,
			"target":34962
		},
		{
			"buffer":0,
			"byteLength":3408,
			"byteOffset":494008,
			"target":34962
		},
		{
			"buffer":0,
			"byteLength":2272,
			"byteOffset":497416,
			"target":34962
		},
		{
			"buffer":0,
			"byteLength":1248,
			"byteOffset":499688,
			"target":34963
		},
		{
			"buffer":0,
			"byteLength":2448,
			"byteOffset":500936,
			"target":34962
		},
		{
			"buffer":0,
			"byteLength":2448,
			"byteOffset":503384,
			"target":34962
		},
		{
			"buffer":0,
			"byteLength":1632,
			"byteOffset":505832,
			"target":34962
		},
		{
			"buffer":0,
			"byteLength":744,
			"byteOffset":507464,
			"target":34963
		},
		{
			"buffer":0,
			"byteLength":7104,
			"byteOffset":508208,
			"target":34962
		},
		{
			"buffer":0,
			"byteLength":7104,
			"byteOffset":515312,
			"target":34962
		},
		{
			"buffer":0,
			"byteLength":4736,
			"byteOffset":522416,
			"target":34962
		},
		{
			"buffer":0,
			"byteLength":2592,
			"byteOffset":527152,
			"target":34963
		},
		{
			"buffer":0,
			"byteLength":1704,
			"byteOffset":529744,
			"target":34962
		},
		{
			"buffer":0,
			"byteLength":1704,
			"byteOffset":531448,
			"target":34962
		},
		{
			"buffer":0,
			"byteLength":1136,
			"byteOffset":533152,
			"target":34962
		},
		{
			"buffer":0,
			"byteLength":756,
			"byteOffset":534288,
			"target":34963
		},
		{
			"buffer":0,
			"byteLength":2880,
			"byteOffset":535044,
			"target":34962
		},
		{
			"buffer":0,
			"byteLength":2880,
			"byteOffset":537924,
			"target":34962
		},
		{
			"buffer":0,
			"byteLength":1920,
			"byteOffset":540804,
			"target":34962
		},
		{
			"buffer":0,
			"byteLength":1824,
			"byteOffset":542724,
			"target":34963
		},
		{
			"buffer":0,
			"byteLength":192,
			"byteOffset":544548,
			"target":34962
		},
		{
			"buffer":0,
			"byteLength":192,
			"byteOffset":544740,
			"target":34962
		},
		{
			"buffer":0,
			"byteLength":128,
			"byteOffset":544932,
			"target":34962
		},
		{
			"buffer":0,
			"byteLength":48,
			"byteOffset":545060,
			"target":34963
		},
		{
			"buffer":0,
			"byteLength":22584,
			"byteOffset":545108,
			"target":34962
		},
		{
			"buffer":0,
			"byteLength":22584,
			"byteOffset":567692,
			"target":34962
		},
		{
			"buffer":0,
			"byteLength":15056,
			"byteOffset":590276,
			"target":34962
		},
		{
			"buffer":0,
			"byteLength":8556,
			"byteOffset":605332,
			"target":34963
		},
		{
			"buffer":0,
			"byteLength":22584,
			"byteOffset":613888,
			"target":34962
		},
		{
			"buffer":0,
			"byteLength":22584,
			"byteOffset":636472,
			"target":34962
		},
		{
			"buffer":0,
			"byteLength":15056,
			"byteOffset":659056,
			"target":34962
		},
		{
			"buffer":0,
			"byteLength":3936,
			"byteOffset":674112,
			"target":34962
		},
		{
			"buffer":0,
			"byteLength":3936,
			"byteOffset":678048,
			"target":34962
		},
		{
			"buffer":0,
			"byteLength":2624,
			"byteOffset":681984,
			"target":34962
		},
		{
			"buffer":0,
			"byteLength":2112,
			"byteOffset":684608,
			"target":34963
		},
		{
			"buffer":0,
			"byteLength":6336,
			"byteOffset":686720,
			"target":34962
		},
		{
			"buffer":0,
			"byteLength":6336,
			"byteOffset":693056,
			"target":34962
		},
		{
			"buffer":0,
			"byteLength":4224,
			"byteOffset":699392,
			"target":34962
		},
		{
			"buffer":0,
			"byteLength":1536,
			"byteOffset":703616,
			"target":34963
		},
		{
			"buffer":0,
			"byteLength":3264,
			"byteOffset":705152,
			"target":34962
		},
		{
			"buffer":0,
			"byteLength":3264,
			"byteOffset":708416,
			"target":34962
		},
		{
			"buffer":0,
			"byteLength":2176,
			"byteOffset":711680,
			"target":34962
		},
		{
			"buffer":0,
			"byteLength":672,
			"byteOffset":713856,
			"target":34963
		},
		{
			"buffer":0,
			"byteLength":24312,
			"byteOffset":714528,
			"target":34962
		},
		{
			"buffer":0,
			"byteLength":24312,
			"byteOffset":738840,
			"target":34962
		},
		{
			"buffer":0,
			"byteLength":16208,
			"byteOffset":763152,
			"target":34962
		},
		{
			"buffer":0,
			"byteLength":12720,
			"byteOffset":779360,
			"target":34963
		},
		{
			"buffer":0,
			"byteLength":24312,
			"byteOffset":792080,
			"target":34962
		},
		{
			"buffer":0,
			"byteLength":24312,
			"byteOffset":816392,
			"target":34962
		},
		{
			"buffer":0,
			"byteLength":16208,
			"byteOffset":840704,
			"target":34962
		},
		{
			"buffer":0,
			"byteLength":181128,
			"byteOffset":856912,
			"target":34962
		},
		{
			"buffer":0,
			"byteLength":181128,
			"byteOffset":1038040,
			"target":34962
		},
		{
			"buffer":0,
			"byteLength":120752,
			"byteOffset":1219168,
			"target":34962
		},
		{
			"buffer":0,
			"byteLength":64212,
			"byteOffset":1339920,
			"target":34963
		},
		{
			"buffer":0,
			"byteLength":24312,
			"byteOffset":1404132,
			"target":34962
		},
		{
			"buffer":0,
			"byteLength":24312,
			"byteOffset":1428444,
			"target":34962
		},
		{
			"buffer":0,
			"byteLength":16208,
			"byteOffset":1452756,
			"target":34962
		},
		{
			"buffer":0,
			"byteLength":24312,
			"byteOffset":1468964,
			"target":34962
		},
		{
			"buffer":0,
			"byteLength":24312,
			"byteOffset":1493276,
			"target":34962
		},
		{
			"buffer":0,
			"byteLength":16208,
			"byteOffset":1517588,
			"target":34962
		},
		{
			"buffer":0,
			"byteLength":195816,
			"byteOffset":1533796,
			"target":34962
		},
		{
			"buffer":0,
			"byteLength":195816,
			"byteOffset":1729612,
			"target":34962
		},
		{
			"buffer":0,
			"byteLength":130544,
			"byteOffset":1925428,
			"target":34962
		},
		{
			"buffer":0,
			"byteLength":69384,
			"byteOffset":2055972,
			"target":34963
		},
		{
			"buffer":0,
			"byteLength":24312,
			"byteOffset":2125356,
			"target":34962
		},
		{
			"buffer":0,
			"byteLength":24312,
			"byteOffset":2149668,
			"target":34962
		},
		{
			"buffer":0,
			"byteLength":16208,
			"byteOffset":2173980,
			"target":34962
		},
		{
			"buffer":0,
			"byteLength":24312,
			"byteOffset":2190188,
			"target":34962
		},
		{
			"buffer":0,
			"byteLength":24312,
			"byteOffset":2214500,
			"target":34962
		},
		{
			"buffer":0,
			"byteLength":16208,
			"byteOffset":2238812,
			"target":34962
		},
		{
			"buffer":0,
			"byteLength":181128,
			"byteOffset":2255020,
			"target":34962
		},
		{
			"buffer":0,
			"byteLength":181128,
			"byteOffset":2436148,
			"target":34962
		},
		{
			"buffer":0,
			"byteLength":120752,
			"byteOffset":2617276,
			"target":34962
		},
		{
			"buffer":0,
			"byteLength":28440,
			"byteOffset":2738028,
			"target":34962
		},
		{
			"buffer":0,
			"byteLength":28440,
			"byteOffset":2766468,
			"target":34962
		},
		{
			"buffer":0,
			"byteLength":18960,
			"byteOffset":2794908,
			"target":34962
		},
		{
			"buffer":0,
			"byteLength":10452,
			"byteOffset":2813868,
			"target":34963
		},
		{
			"buffer":0,
			"byteLength":28440,
			"byteOffset":2824320,
			"target":34962
		},
		{
			"buffer":0,
			"byteLength":28440,
			"byteOffset":2852760,
			"target":34962
		},
		{
			"buffer":0,
			"byteLength":18960,
			"byteOffset":2881200,
			"target":34962
		},
		{
			"buffer":0,
			"byteLength":50628,
			"byteOffset":2900160,
			"target":34962
		},
		{
			"buffer":0,
			"byteLength":50628,
			"byteOffset":2950788,
			"target":34962
		},
		{
			"buffer":0,
			"byteLength":33752,
			"byteOffset":3001416,
			"target":34962
		},
		{
			"buffer":0,
			"byteLength":18252,
			"byteOffset":3035168,
			"target":34963
		},
		{
			"buffer":0,
			"byteLength":3312,
			"byteOffset":3053420,
			"target":34962
		},
		{
			"buffer":0,
			"byteLength":3312,
			"byteOffset":3056732,
			"target":34962
		},
		{
			"buffer":0,
			"byteLength":2208,
			"byteOffset":3060044,
			"target":34962
		},
		{
			"buffer":0,
			"byteLength":1632,
			"byteOffset":3062252,
			"target":34963
		},
		{
			"buffer":0,
			"byteLength":5424,
			"byteOffset":3063884,
			"target":34962
		},
		{
			"buffer":0,
			"byteLength":5424,
			"byteOffset":3069308,
			"target":34962
		},
		{
			"buffer":0,
			"byteLength":3616,
			"byteOffset":3074732,
			"target":34962
		},
		{
			"buffer":0,
			"byteLength":1752,
			"byteOffset":3078348,
			"target":34963
		},
		{
			"buffer":0,
			"byteLength":5340,
			"byteOffset":3080100,
			"target":34962
		},
		{
			"buffer":0,
			"byteLength":5340,
			"byteOffset":3085440,
			"target":34962
		},
		{
			"buffer":0,
			"byteLength":3560,
			"byteOffset":3090780,
			"target":34962
		},
		{
			"buffer":0,
			"byteLength":1668,
			"byteOffset":3094340,
			"target":34963
		},
		{
			"buffer":0,
			"byteLength":3024,
			"byteOffset":3096008,
			"target":34962
		},
		{
			"buffer":0,
			"byteLength":3024,
			"byteOffset":3099032,
			"target":34962
		},
		{
			"buffer":0,
			"byteLength":2016,
			"byteOffset":3102056,
			"target":34962
		},
		{
			"buffer":0,
			"byteLength":1056,
			"byteOffset":3104072,
			"target":34963
		},
		{
			"buffer":0,
			"byteLength":5424,
			"byteOffset":3105128,
			"target":34962
		},
		{
			"buffer":0,
			"byteLength":5424,
			"byteOffset":3110552,
			"target":34962
		},
		{
			"buffer":0,
			"byteLength":3616,
			"byteOffset":3115976,
			"target":34962
		},
		{
			"buffer":0,
			"byteLength":5340,
			"byteOffset":3119592,
			"target":34962
		},
		{
			"buffer":0,
			"byteLength":5340,
			"byteOffset":3124932,
			"target":34962
		},
		{
			"buffer":0,
			"byteLength":3560,
			"byteOffset":3130272,
			"target":34962
		},
		{
			"buffer":0,
			"byteLength":3024,
			"byteOffset":3133832,
			"target":34962
		},
		{
			"buffer":0,
			"byteLength":3024,
			"byteOffset":3136856,
			"target":34962
		},
		{
			"buffer":0,
			"byteLength":2016,
			"byteOffset":3139880,
			"target":34962
		},
		{
			"buffer":0,
			"byteLength":8,
			"byteOffset":3141896
		},
		{
			"buffer":0,
			"byteLength":24,
			"byteOffset":3141904
		},
		{
			"buffer":0,
			"byteLength":32,
			"byteOffset":3141928
		},
		{
			"buffer":0,
			"byteLength":24,
			"byteOffset":3141960
		},
		{
			"buffer":0,
			"byteLength":24,
			"byteOffset":3141984
		},
		{
			"buffer":0,
			"byteLength":32,
			"byteOffset":3142008
		},
		{
			"buffer":0,
			"byteLength":24,
			"byteOffset":3142040
		},
		{
			"buffer":0,
			"byteLength":24,
			"byteOffset":3142064
		},
		{
			"buffer":0,
			"byteLength":32,
			"byteOffset":3142088
		},
		{
			"buffer":0,
			"byteLength":24,
			"byteOffset":3142120
		},
		{
			"buffer":0,
			"byteLength":24,
			"byteOffset":3142144
		},
		{
			"buffer":0,
			"byteLength":32,
			"byteOffset":3142168
		},
		{
			"buffer":0,
			"byteLength":24,
			"byteOffset":3142200
		},
		{
			"buffer":0,
			"byteLength":24,
			"byteOffset":3142224
		},
		{
			"buffer":0,
			"byteLength":32,
			"byteOffset":3142248
		},
		{
			"buffer":0,
			"byteLength":24,
			"byteOffset":3142280
		},
		{
			"buffer":0,
			"byteLength":24,
			"byteOffset":3142304
		},
		{
			"buffer":0,
			"byteLength":32,
			"byteOffset":3142328
		},
		{
			"buffer":0,
			"byteLength":24,
			"byteOffset":3142360
		},
		{
			"buffer":0,
			"byteLength":192,
			"byteOffset":3142384
		},
		{
			"buffer":0,
			"byteLength":192,
			"byteOffset":3142576
		}
	],
	"samplers":[
		{
			"magFilter":9729,
			"minFilter":9987
		}
	],
	"buffers":[
		{
			"byteLength":3142768,
			"uri":"EP1m.bin"
		}
	]
}
